<mxfile host="app.diagrams.net" modified="2023-05-08T04:11:05.923Z" agent="Mozilla/5.0 (Windows NT 10.0; Win64; x64) AppleWebKit/537.36 (KHTML, like Gecko) Chrome/112.0.0.0 Safari/537.36" etag="CeyPDkCsVBQP1b1FtJ47" version="21.2.9" type="device">
  <diagram id="C5RBs43oDa-KdzZeNtuy" name="Page-1">
    <mxGraphModel dx="880" dy="435" grid="1" gridSize="10" guides="1" tooltips="1" connect="1" arrows="1" fold="1" page="1" pageScale="1" pageWidth="827" pageHeight="1169" math="0" shadow="0">
      <root>
        <mxCell id="WIyWlLk6GJQsqaUBKTNV-0" />
        <mxCell id="WIyWlLk6GJQsqaUBKTNV-1" parent="WIyWlLk6GJQsqaUBKTNV-0" />
        <mxCell id="c2NFmtq37WTnZfRH3xvw-3" value="" style="edgeStyle=orthogonalEdgeStyle;rounded=0;orthogonalLoop=1;jettySize=auto;html=1;" edge="1" parent="WIyWlLk6GJQsqaUBKTNV-1" source="c2NFmtq37WTnZfRH3xvw-0" target="c2NFmtq37WTnZfRH3xvw-2">
          <mxGeometry relative="1" as="geometry" />
        </mxCell>
        <mxCell id="c2NFmtq37WTnZfRH3xvw-0" value="START" style="ellipse;whiteSpace=wrap;html=1;" vertex="1" parent="WIyWlLk6GJQsqaUBKTNV-1">
          <mxGeometry x="350" y="30" width="120" height="40" as="geometry" />
        </mxCell>
        <mxCell id="c2NFmtq37WTnZfRH3xvw-5" value="" style="edgeStyle=orthogonalEdgeStyle;rounded=0;orthogonalLoop=1;jettySize=auto;html=1;" edge="1" parent="WIyWlLk6GJQsqaUBKTNV-1" source="c2NFmtq37WTnZfRH3xvw-2" target="c2NFmtq37WTnZfRH3xvw-4">
          <mxGeometry relative="1" as="geometry" />
        </mxCell>
        <mxCell id="c2NFmtq37WTnZfRH3xvw-2" value="Read Noisy Image" style="shape=parallelogram;perimeter=parallelogramPerimeter;whiteSpace=wrap;html=1;fixedSize=1;" vertex="1" parent="WIyWlLk6GJQsqaUBKTNV-1">
          <mxGeometry x="335" y="100" width="150" height="40" as="geometry" />
        </mxCell>
        <mxCell id="c2NFmtq37WTnZfRH3xvw-7" value="" style="edgeStyle=orthogonalEdgeStyle;rounded=0;orthogonalLoop=1;jettySize=auto;html=1;" edge="1" parent="WIyWlLk6GJQsqaUBKTNV-1" source="c2NFmtq37WTnZfRH3xvw-4" target="c2NFmtq37WTnZfRH3xvw-6">
          <mxGeometry relative="1" as="geometry" />
        </mxCell>
        <mxCell id="c2NFmtq37WTnZfRH3xvw-26" value="YES" style="edgeLabel;html=1;align=center;verticalAlign=middle;resizable=0;points=[];" vertex="1" connectable="0" parent="c2NFmtq37WTnZfRH3xvw-7">
          <mxGeometry x="-0.8178" relative="1" as="geometry">
            <mxPoint x="14" as="offset" />
          </mxGeometry>
        </mxCell>
        <mxCell id="c2NFmtq37WTnZfRH3xvw-4" value="Is Window&#39;s center extremum" style="rhombus;whiteSpace=wrap;html=1;" vertex="1" parent="WIyWlLk6GJQsqaUBKTNV-1">
          <mxGeometry x="345" y="170" width="130" height="130" as="geometry" />
        </mxCell>
        <mxCell id="c2NFmtq37WTnZfRH3xvw-9" value="" style="edgeStyle=orthogonalEdgeStyle;rounded=0;orthogonalLoop=1;jettySize=auto;html=1;" edge="1" parent="WIyWlLk6GJQsqaUBKTNV-1" source="c2NFmtq37WTnZfRH3xvw-6" target="c2NFmtq37WTnZfRH3xvw-8">
          <mxGeometry x="0.2" y="20" relative="1" as="geometry">
            <mxPoint as="offset" />
          </mxGeometry>
        </mxCell>
        <mxCell id="c2NFmtq37WTnZfRH3xvw-31" value="YES" style="edgeLabel;html=1;align=center;verticalAlign=middle;resizable=0;points=[];" vertex="1" connectable="0" parent="c2NFmtq37WTnZfRH3xvw-9">
          <mxGeometry x="-0.8667" relative="1" as="geometry">
            <mxPoint x="12" y="4" as="offset" />
          </mxGeometry>
        </mxCell>
        <mxCell id="c2NFmtq37WTnZfRH3xvw-28" value="" style="edgeStyle=orthogonalEdgeStyle;rounded=0;orthogonalLoop=1;jettySize=auto;html=1;" edge="1" parent="WIyWlLk6GJQsqaUBKTNV-1" source="c2NFmtq37WTnZfRH3xvw-6" target="c2NFmtq37WTnZfRH3xvw-27">
          <mxGeometry relative="1" as="geometry" />
        </mxCell>
        <mxCell id="c2NFmtq37WTnZfRH3xvw-29" value="NO" style="edgeLabel;html=1;align=center;verticalAlign=middle;resizable=0;points=[];" vertex="1" connectable="0" parent="c2NFmtq37WTnZfRH3xvw-28">
          <mxGeometry x="-0.8655" y="-1" relative="1" as="geometry">
            <mxPoint x="-9" y="-10" as="offset" />
          </mxGeometry>
        </mxCell>
        <mxCell id="c2NFmtq37WTnZfRH3xvw-6" value="Is difference pt. extreme value in window" style="rhombus;whiteSpace=wrap;html=1;" vertex="1" parent="WIyWlLk6GJQsqaUBKTNV-1">
          <mxGeometry x="345" y="330" width="130" height="130" as="geometry" />
        </mxCell>
        <mxCell id="c2NFmtq37WTnZfRH3xvw-11" value="" style="edgeStyle=orthogonalEdgeStyle;rounded=0;orthogonalLoop=1;jettySize=auto;html=1;" edge="1" parent="WIyWlLk6GJQsqaUBKTNV-1" source="c2NFmtq37WTnZfRH3xvw-8" target="c2NFmtq37WTnZfRH3xvw-10">
          <mxGeometry relative="1" as="geometry" />
        </mxCell>
        <mxCell id="c2NFmtq37WTnZfRH3xvw-8" value="Extended Window" style="whiteSpace=wrap;html=1;" vertex="1" parent="WIyWlLk6GJQsqaUBKTNV-1">
          <mxGeometry x="350" y="490" width="120" height="40" as="geometry" />
        </mxCell>
        <mxCell id="c2NFmtq37WTnZfRH3xvw-13" value="" style="edgeStyle=orthogonalEdgeStyle;rounded=0;orthogonalLoop=1;jettySize=auto;html=1;" edge="1" parent="WIyWlLk6GJQsqaUBKTNV-1" source="c2NFmtq37WTnZfRH3xvw-10" target="c2NFmtq37WTnZfRH3xvw-12">
          <mxGeometry relative="1" as="geometry" />
        </mxCell>
        <mxCell id="c2NFmtq37WTnZfRH3xvw-23" value="NO" style="edgeLabel;html=1;align=center;verticalAlign=middle;resizable=0;points=[];" vertex="1" connectable="0" parent="c2NFmtq37WTnZfRH3xvw-13">
          <mxGeometry x="-0.7745" relative="1" as="geometry">
            <mxPoint x="10" as="offset" />
          </mxGeometry>
        </mxCell>
        <mxCell id="c2NFmtq37WTnZfRH3xvw-19" value="" style="edgeStyle=orthogonalEdgeStyle;rounded=0;orthogonalLoop=1;jettySize=auto;html=1;" edge="1" parent="WIyWlLk6GJQsqaUBKTNV-1" source="c2NFmtq37WTnZfRH3xvw-10" target="c2NFmtq37WTnZfRH3xvw-18">
          <mxGeometry relative="1" as="geometry" />
        </mxCell>
        <mxCell id="c2NFmtq37WTnZfRH3xvw-22" value="YES" style="edgeLabel;html=1;align=center;verticalAlign=middle;resizable=0;points=[];" vertex="1" connectable="0" parent="c2NFmtq37WTnZfRH3xvw-19">
          <mxGeometry x="-0.6811" y="-1" relative="1" as="geometry">
            <mxPoint x="-27" y="-10" as="offset" />
          </mxGeometry>
        </mxCell>
        <mxCell id="c2NFmtq37WTnZfRH3xvw-10" value="Is it the largest window" style="rhombus;whiteSpace=wrap;html=1;" vertex="1" parent="WIyWlLk6GJQsqaUBKTNV-1">
          <mxGeometry x="355" y="560" width="110" height="110" as="geometry" />
        </mxCell>
        <mxCell id="c2NFmtq37WTnZfRH3xvw-15" value="NO" style="edgeStyle=orthogonalEdgeStyle;rounded=0;orthogonalLoop=1;jettySize=auto;html=1;exitX=0.5;exitY=1;exitDx=0;exitDy=0;entryX=0.5;entryY=0;entryDx=0;entryDy=0;" edge="1" parent="WIyWlLk6GJQsqaUBKTNV-1" source="c2NFmtq37WTnZfRH3xvw-12" target="c2NFmtq37WTnZfRH3xvw-14">
          <mxGeometry x="-0.3333" y="10" relative="1" as="geometry">
            <mxPoint as="offset" />
          </mxGeometry>
        </mxCell>
        <mxCell id="c2NFmtq37WTnZfRH3xvw-12" value="Is new difference pt. extremum" style="rhombus;whiteSpace=wrap;html=1;aspect=fixed;" vertex="1" parent="WIyWlLk6GJQsqaUBKTNV-1">
          <mxGeometry x="345" y="700" width="130" height="130" as="geometry" />
        </mxCell>
        <mxCell id="c2NFmtq37WTnZfRH3xvw-17" value="" style="edgeStyle=orthogonalEdgeStyle;rounded=0;orthogonalLoop=1;jettySize=auto;html=1;" edge="1" parent="WIyWlLk6GJQsqaUBKTNV-1" source="c2NFmtq37WTnZfRH3xvw-14" target="c2NFmtq37WTnZfRH3xvw-16">
          <mxGeometry relative="1" as="geometry" />
        </mxCell>
        <mxCell id="c2NFmtq37WTnZfRH3xvw-14" value="Rotary filter fan" style="rounded=0;whiteSpace=wrap;html=1;" vertex="1" parent="WIyWlLk6GJQsqaUBKTNV-1">
          <mxGeometry x="350" y="860" width="120" height="40" as="geometry" />
        </mxCell>
        <mxCell id="c2NFmtq37WTnZfRH3xvw-25" style="edgeStyle=orthogonalEdgeStyle;rounded=0;orthogonalLoop=1;jettySize=auto;html=1;exitX=0;exitY=0.5;exitDx=0;exitDy=0;entryX=0;entryY=0.5;entryDx=0;entryDy=0;" edge="1" parent="WIyWlLk6GJQsqaUBKTNV-1" source="c2NFmtq37WTnZfRH3xvw-16" target="c2NFmtq37WTnZfRH3xvw-4">
          <mxGeometry relative="1" as="geometry">
            <Array as="points">
              <mxPoint x="300" y="960" />
              <mxPoint x="300" y="235" />
            </Array>
          </mxGeometry>
        </mxCell>
        <mxCell id="c2NFmtq37WTnZfRH3xvw-33" value="" style="edgeStyle=orthogonalEdgeStyle;rounded=0;orthogonalLoop=1;jettySize=auto;html=1;" edge="1" parent="WIyWlLk6GJQsqaUBKTNV-1" source="c2NFmtq37WTnZfRH3xvw-16" target="c2NFmtq37WTnZfRH3xvw-32">
          <mxGeometry relative="1" as="geometry" />
        </mxCell>
        <mxCell id="c2NFmtq37WTnZfRH3xvw-16" value="&lt;font style=&quot;font-size: 25px;&quot;&gt;Î£&lt;/font&gt;" style="ellipse;whiteSpace=wrap;html=1;rounded=0;" vertex="1" parent="WIyWlLk6GJQsqaUBKTNV-1">
          <mxGeometry x="380" y="930" width="60" height="60" as="geometry" />
        </mxCell>
        <mxCell id="c2NFmtq37WTnZfRH3xvw-21" style="edgeStyle=orthogonalEdgeStyle;rounded=0;orthogonalLoop=1;jettySize=auto;html=1;entryX=1;entryY=0;entryDx=0;entryDy=0;" edge="1" parent="WIyWlLk6GJQsqaUBKTNV-1" source="c2NFmtq37WTnZfRH3xvw-18" target="c2NFmtq37WTnZfRH3xvw-16">
          <mxGeometry relative="1" as="geometry">
            <Array as="points">
              <mxPoint x="570" y="939" />
            </Array>
          </mxGeometry>
        </mxCell>
        <mxCell id="c2NFmtq37WTnZfRH3xvw-18" value="Median filtering" style="whiteSpace=wrap;html=1;" vertex="1" parent="WIyWlLk6GJQsqaUBKTNV-1">
          <mxGeometry x="510" y="745" width="120" height="40" as="geometry" />
        </mxCell>
        <mxCell id="c2NFmtq37WTnZfRH3xvw-30" style="edgeStyle=orthogonalEdgeStyle;rounded=0;orthogonalLoop=1;jettySize=auto;html=1;entryX=1;entryY=1;entryDx=0;entryDy=0;exitX=0.5;exitY=1;exitDx=0;exitDy=0;" edge="1" parent="WIyWlLk6GJQsqaUBKTNV-1" source="c2NFmtq37WTnZfRH3xvw-27" target="c2NFmtq37WTnZfRH3xvw-16">
          <mxGeometry relative="1" as="geometry">
            <Array as="points">
              <mxPoint x="660" y="981" />
            </Array>
          </mxGeometry>
        </mxCell>
        <mxCell id="c2NFmtq37WTnZfRH3xvw-27" value="For fan rotatory filter" style="whiteSpace=wrap;html=1;" vertex="1" parent="WIyWlLk6GJQsqaUBKTNV-1">
          <mxGeometry x="600" y="520" width="120" height="40" as="geometry" />
        </mxCell>
        <mxCell id="c2NFmtq37WTnZfRH3xvw-32" value="Filtered Image" style="whiteSpace=wrap;html=1;rounded=0;" vertex="1" parent="WIyWlLk6GJQsqaUBKTNV-1">
          <mxGeometry x="350" y="1020" width="120" height="40" as="geometry" />
        </mxCell>
      </root>
    </mxGraphModel>
  </diagram>
</mxfile>
